<?xml version="1.0" encoding="utf-8"?>
<!-- Generator: Adobe Illustrator 14.0.0, SVG Export Plug-In . SVG Version: 6.00 Build 43363)  -->
<!DOCTYPE svg PUBLIC "-//W3C//DTD SVG 1.1//EN" "http://www.w3.org/Graphics/SVG/1.1/DTD/svg11.dtd">
<svg version="1.1" id="Layer_1" xmlns="http://www.w3.org/2000/svg" xmlns:xlink="http://www.w3.org/1999/xlink" x="0px" y="0px"
	 width="256px" height="256px" viewBox="0 0 256 256" enable-background="new 0 0 256 256" xml:space="preserve">
<linearGradient id="SVGID_1_" gradientUnits="userSpaceOnUse" x1="458.251" y1="810.0293" x2="509.7487" y2="517.9703" gradientTransform="matrix(1 0 0 1 -356 -536)">
	<stop  offset="0" style="stop-color:#4CA6CF"/>
	<stop  offset="0.1697" style="stop-color:#3F97BF"/>
	<stop  offset="0.445" style="stop-color:#2E84AB"/>
	<stop  offset="0.7217" style="stop-color:#24799F"/>
	<stop  offset="1" style="stop-color:#21759B"/>
</linearGradient>
<rect fill="url(#SVGID_1_)" width="256" height="256"/>
<g>
	<g>
		<path d="M147.015,144.863l-8.904,8.905l16.031,26.719l-26.72-16.031l-8.906,8.906v-28.499H147.015z M118.516,216.113l8.906,8.906
			l26.72-16.032l-16.031,26.72l8.904,8.905h-28.499V216.113z M154.142,208.987v-28.5h42.749v28.5H154.142z M204.015,144.863h28.501
			v28.499l-8.906-8.906l-26.719,16.031l16.03-26.719L204.015,144.863z M204.015,244.612l8.906-8.905l-16.03-26.72l26.719,16.032
			l8.906-8.906v28.499H204.015z"/>
	</g>
	<g>
		<path d="M129.493,50.142l17.022-28.366v105.899l-17.022-28.365l9.456-9.456h-30.255v30.258l9.453-9.456l28.369,17.019H25.485
			l28.366-17.019l9.456,9.456V89.854H33.048l9.456,9.456l-17.02,28.365V21.776l17.02,28.366l-9.456,9.456h30.258V29.339
			l-9.456,9.456l-28.366-17.02h121.031l-28.369,17.02l-9.453-9.456v30.258h30.255L129.493,50.142z"/>
	</g>
</g>
<g>
	<g>
		<path fill="#24799F" d="M146.015,143.863l-8.904,8.905l16.031,26.719l-26.72-16.031l-8.906,8.906v-28.499H146.015z
			 M117.516,215.113l8.906,8.906l26.72-16.032l-16.031,26.72l8.904,8.905h-28.499V215.113z M153.142,207.987v-28.5h42.749v28.5
			H153.142z M203.015,143.863h28.501v28.499l-8.906-8.906l-26.719,16.031l16.03-26.719L203.015,143.863z M203.015,243.612
			l8.906-8.905l-16.03-26.72l26.719,16.032l8.906-8.906v28.499H203.015z"/>
	</g>
	<g>
		<path fill="#24799F" d="M128.493,49.142l17.022-28.366v105.899l-17.022-28.365l9.456-9.456h-30.255v30.258l9.453-9.456
			l28.369,17.019H24.485l28.366-17.019l9.456,9.456V88.854H32.048l9.456,9.456l-17.02,28.365V20.776l17.02,28.366l-9.456,9.456
			h30.258V28.339l-9.456,9.456l-28.366-17.02h121.031l-28.369,17.02l-9.453-9.456v30.258h30.255L128.493,49.142z"/>
	</g>
</g>
<g>
	<g>
		<path fill="#FFFFFF" d="M145.015,142.863l-8.904,8.905l16.031,26.719l-26.72-16.031l-8.906,8.906v-28.499H145.015z
			 M116.516,214.113l8.906,8.906l26.72-16.032l-16.031,26.72l8.904,8.905h-28.499V214.113z M152.142,206.987v-28.5h42.749v28.5
			H152.142z M202.015,142.863h28.501v28.499l-8.906-8.906l-26.719,16.031l16.03-26.719L202.015,142.863z M202.015,242.612
			l8.906-8.905l-16.03-26.72l26.719,16.032l8.906-8.906v28.499H202.015z"/>
	</g>
	<g>
		<path fill="#FFFFFF" d="M127.493,48.142l17.022-28.366v105.899l-17.022-28.365l9.456-9.456h-30.255v30.258l9.453-9.456
			l28.369,17.019H23.485l28.366-17.019l9.456,9.456V87.854H31.048l9.456,9.456l-17.02,28.365V19.776l17.02,28.366l-9.456,9.456
			h30.258V27.339l-9.456,9.456l-28.366-17.02h121.031l-28.369,17.02l-9.453-9.456v30.258h30.255L127.493,48.142z"/>
	</g>
</g>
</svg>
